<?xml version="1.0" encoding="utf-8"?>
<svg width="100px" height="100px" viewBox="0 0 100 100" version="1.1" xmlns:xlink="http://www.w3.org/1999/xlink" xmlns="http://www.w3.org/2000/svg">
  <defs>
    <rect width="100" height="100" id="artboard_1" />
    <clipPath id="clip_1">
      <use xlink:href="#artboard_1" clip-rule="evenodd" />
    </clipPath>
  </defs>
  <g id="TrashBin" clip-path="url(#clip_1)">
    <use xlink:href="#artboard_1" stroke="none" fill="#FFFFFF" fill-opacity="0" />
    <path d="M58.3334 71.875C60 71.875 61.4584 70.4167 61.4584 68.75L61.4584 47.9167C61.4584 46.25 60 44.7917 58.3334 44.7917C56.6667 44.7917 55.2084 46.25 55.2084 47.9167L55.2084 68.75C55.2084 70.4167 56.6667 71.875 58.3334 71.875L58.3334 71.875Z" id="Right" fill="#FFFFFF" fill-rule="evenodd" stroke="none" />
    <path d="M41.6667 71.875C43.3334 71.875 44.7918 70.4167 44.7918 68.75L44.7918 47.9167C44.7918 46.25 43.3334 44.7917 41.6667 44.7917C40.0001 44.7917 38.5417 46.25 38.5417 47.9167L38.5417 68.75C38.5417 70.4167 40.0001 71.875 41.6667 71.875L41.6667 71.875Z" id="Left" fill="#FFFFFF" fill-rule="evenodd" stroke="none" />
    <path d="M85.4167 23.5417L65.625 23.5417L65.625 16.6667C65.625 12.7083 62.2917 9.375 58.3334 9.375L41.6667 9.375C37.7084 9.375 34.375 12.7083 34.375 16.6667L34.375 23.5417L14.5834 23.5417C12.9167 23.5417 11.4584 25 11.4584 26.6667C11.4584 28.3333 12.9167 29.7917 14.5834 29.7917L19.7917 29.7917L19.7917 83.3333C19.7917 87.2917 23.125 90.625 27.0834 90.625L72.9167 90.625C76.875 90.625 80.2084 87.2917 80.2084 83.3333L80.2084 29.7917L85.4167 29.7917C87.0834 29.7917 88.5417 28.3333 88.5417 26.6667C88.5417 25 87.0834 23.5417 85.4167 23.5417ZM41.6667 15.625C41.0417 15.625 40.625 16.0417 40.625 16.6667L40.625 23.5417L59.375 23.5417L59.375 16.6667C59.375 16.0417 58.9583 15.625 58.3333 15.625L41.6667 15.625ZM73.9584 83.3333C73.9584 83.9583 73.5418 84.375 72.9167 84.375L27.0834 84.375C26.4584 84.375 26.0417 83.9583 26.0417 83.3333L26.0417 30.2083L73.9584 30.2083L73.9584 83.3333Z" id="Shape-path-Xor" fill="#FFFFFF" fill-rule="evenodd" stroke="none" />
  </g>
</svg>